<?xml version="1.0" encoding="utf-8"?>
<!-- Generator: Adobe Illustrator 24.0.1, SVG Export Plug-In . SVG Version: 6.00 Build 0)  -->
<svg version="1.1" xmlns="http://www.w3.org/2000/svg" xmlns:xlink="http://www.w3.org/1999/xlink" x="0px" y="0px"
	 viewBox="0 0 360 360" style="enable-background:new 0 0 360 360;" xml:space="preserve">
<style type="text/css">
	.st0{fill:#582110;stroke:#582110;stroke-miterlimit:10;}
	.st1{fill:none;stroke:#000000;stroke-miterlimit:10;}
	.st2{stroke:#000000;stroke-miterlimit:10;}
	.st3{display:none;stroke:#000000;stroke-miterlimit:10;}
	.st4{display:none;}
	.st5{display:inline;fill:none;stroke:#000000;stroke-miterlimit:10;}
	.st6{fill:#EDC0AD;stroke:#000000;stroke-miterlimit:10;}
	.st7{display:none;fill:none;stroke:#000000;stroke-miterlimit:10;}
	.st8{fill:#3A52A4;stroke:#000000;stroke-miterlimit:10;}
	.st9{fill:#D3D3D3;stroke:#D3D3D3;stroke-miterlimit:10;}
	.st10{fill:#FFFFFF;stroke:#000000;stroke-miterlimit:10;}
	.st11{fill:#CF2E27;stroke:#000000;stroke-miterlimit:10;}
	.st12{fill:#7E1416;stroke:#7E1518;stroke-miterlimit:10;}
	.st13{fill:#DD5454;stroke:#000000;stroke-miterlimit:10;}
</style>
<g id="Layer_1">
	<circle class="st0" cx="179.87" cy="180.13" r="179.87"/>
</g>
<g id="face">
	<path class="st1" d="M176.6,66.69c-6.91,1.15-14.99,3.08-23.75,6.33c-6.01,2.23-11.37,4.73-16.04,7.21"/>
	<path class="st2" d="M146.62,117.97c-0.35,5.74-1.18,8.24-2.16,10.18c-6.03,11.88-19.86,5.73-27.35,13.15
		c-15.78,15.61,17.53,70.51-1.18,97.69c-6.95,10.1-18.58,12.67-20.49,13.15c-1.36,0.34-17.47,3.81-28.16-7.64
		c-4.4-4.71-6.57-10.54-6.06-11.03c0.71-0.7,5.81,10.05,13.04,10.33c7.29,0.28,14.04-9.99,16.11-17.12
		c3.75-12.88-0.36-27.97-0.85-29.7c0,0,0,0,0,0c-0.01-0.03-3.17-10.95-15.35-28c-0.36-0.5-1.69-2.33-3.06-5.09
		c-0.15-0.3-1.25-2.54-2.16-5.3c-2.02-6.16-2.29-12.5-2.34-13.79c-0.6-16.96,6.75-32.88,11.07-42c1.39-2.93,14.5-30.49,28.97-36.68
		c1.68-0.72,3.02-1.14,3.87-1.41c7.1-2.25,14.59-1.35,19.09,0.59C145.46,72.14,147.48,103.94,146.62,117.97z"/>
	<path class="st3" d="M155.14,130.31c-2.13,15.88-14.17,19.22-18.6,42.27c-2.22,11.57-0.6,18.24-3.7,19.23
		c-5.27,1.69-16.67-15.38-21.84-30.7c-2.57-7.6-3.53-14.54-3.97-17.89c-0.76-5.72-1.86-13.97-0.66-21.42
		c2.34-14.61,14.59-32.84,26.61-31.99C145.52,90.7,157.5,112.73,155.14,130.31z"/>
	<g class="st4">
		<line class="st5" x1="206.93" y1="56.81" x2="82.77" y2="94.78"/>
		<line class="st5" x1="206.93" y1="56.81" x2="286.36" y2="95.09"/>
	</g>
	<g>
		<path class="st6" d="M119.86,198.32c3.21,22.98,4.6,26.9,2.14,29.52c-4.47,4.77-15.63-1.17-21.5-6.36
			c-9.6-8.49-11.64-20.83-12-23.34c-0.78-5.31-1.89-12.87,1.97-19.09c5.4-8.7,17.86-10.46,24.01-4.67
			C117.42,177.16,117.32,180.18,119.86,198.32z"/>
		<path class="st6" d="M249.37,198.32c-3.21,22.98-4.6,26.9-2.14,29.52c4.47,4.77,15.63-1.17,21.5-6.36
			c9.6-8.49,11.64-20.83,12-23.34c0.78-5.31,1.89-12.87-1.97-19.09c-5.4-8.7-17.86-10.46-24.01-4.67
			C251.81,177.16,251.91,180.18,249.37,198.32z"/>
		<path class="st2" d="M263.82,114.4c-1.27,21.32-46.57,35.1-79.51,35.1c-32.94,0.01-78.23-13.76-79.51-35.1
			c-1.26-21.05,40.32-49.04,79.05-49.22C223.06,64.99,265.08,93.27,263.82,114.4z"/>
		<path class="st6" d="M263.85,146.49l-61.54-31.74l0.11-0.25l-97.64,31.25v77.06h0.25c-0.2,1.59-0.24,3.13-0.11,4.63
			c0.49,5.88,2.67,10.85,5.74,15.38c11.95,17.63,27.1,28.28,27.14,28.31l0,0c2.72,2.82,20.14,20.25,47.73,19.42
			c27.7-0.83,44.09-19.42,46.61-22.39c0,0,0,0,0,0c0.04-0.03,8.59-6.71,27.03-30.65c1.24-1.61,3.71-5.08,4.44-10.07
			c0.19-1.34,0.21-2.75,0.06-4.21l0.16-0.14l-0.19-0.28h0.2V146.49z"/>
		<g>
			<polygon class="st2" points="202.46,114.41 104.78,114.41 104.78,149.5 202.42,114.51 			"/>
			<polygon class="st2" points="202.7,114.41 202.42,114.51 202.31,114.78 263.85,150.33 263.85,114.41 			"/>
		</g>
		<polygon class="st1" points="202.7,114.41 202.46,114.41 202.42,114.51 		"/>
	</g>
	<g>
		<path class="st1" d="M190.28,212.57c-0.89,0.83-1.98,1.73-3.29,2.6c-1.43,0.95-2.78,1.65-3.94,2.16"/>
		<path class="st1" d="M185.81,204.26c0.29,1.26,0.77,2.87,1.61,4.61c0.9,1.86,1.92,3.28,2.76,4.29"/>
	</g>
	<polygon class="st7" points="208.09,55.97 207.74,56.07 207.59,56.37 286.36,94.8 286.36,55.97 	"/>
	<path class="st8" d="M131.36,85.08c-0.22-0.52-0.39-1.03-0.51-1.52c-1.31-5.15,1.63-10.05,2.85-11.87c2.1-2.33,5.99-6.02,11.8-8.21
		c4.04-1.52,7.91-1.49,15.64-1.41c9.11,0.09,13.02,1.51,16.04,3.96c0.57,0.46,1.02,0.89,1.32,1.19c-3.72,0.27-8.72,0.86-14.5,2.23
		c-3.91,0.93-10.66,2.57-18.75,6.67C141.53,78,136.65,80.84,131.36,85.08z"/>
	<path class="st2" d="M46.4,181.18"/>
</g>
<g id="specs">
	<g>
		<polygon class="st2" points="110.54,176.11 104.98,174.57 105.45,172.61 111.01,174.15 		"/>
		<g>
			<path class="st2" d="M229.05,162.97c13.1,0.18,22.44,1.96,26.76,8.18h7.12v11.97h-4.5c-0.04,0.71-0.1,1.45-0.19,2.21
				c-1.94,16.2-13.31,27.38-29.87,27.38s-29.31-11.09-30.11-27.38C197.31,165.93,212.71,162.75,229.05,162.97z"/>
			<path class="st6" d="M229.33,166.37c-14.1-0.19-27.39,2.55-26.57,19.3c0.69,14.06,11.69,23.64,25.99,23.64
				c14.3,0,24.11-9.65,25.78-23.64C256.4,170.09,246.67,166.6,229.33,166.37z"/>
		</g>
		<g>
			<path class="st2" d="M144.95,162.97c-13.1,0.18-22.44,1.96-26.76,8.18h-7.12v11.97h4.5c0.04,0.71,0.1,1.45,0.19,2.21
				c1.94,16.2,13.31,27.38,29.87,27.38s29.31-11.09,30.11-27.38C176.68,165.93,161.29,162.75,144.95,162.97z"/>
			<path class="st6" d="M144.66,166.37c14.1-0.19,27.39,2.55,26.57,19.3c-0.69,14.06-11.69,23.64-25.99,23.64
				s-24.11-9.65-25.78-23.64C117.6,170.09,127.32,166.6,144.66,166.37z"/>
		</g>
		<g>
			<ellipse class="st9" cx="116.58" cy="176.11" rx="1.04" ry="1.02"/>
			<ellipse class="st9" cx="113.34" cy="176.11" rx="1.04" ry="1.02"/>
		</g>
		<g>
			<ellipse class="st9" cx="260.24" cy="176.45" rx="1.04" ry="1.02"/>
			<ellipse class="st9" cx="257" cy="176.45" rx="1.04" ry="1.02"/>
		</g>
		<g>
			<g>
				<path class="st1" d="M175.77,174.52"/>
			</g>
		</g>
		<g>
			<g>
				<path class="st1" d="M175.77,175.25"/>
			</g>
		</g>
		<g>
			<g>
				<path class="st1" d="M178.58,173.73"/>
			</g>
		</g>
		<g>
			<g>
				<path class="st1" d="M175.2,174.58"/>
			</g>
		</g>
		<g>
			<g>
				<path class="st1" d="M172.91,163.93"/>
			</g>
		</g>
		<path class="st2" d="M199.5,177.26c-1.84-1.13-6.45-3.6-12.84-3.6c-2.17,0-7.41,0.28-12.84,3.6c0-1.13,0-2.25,0-3.38
			c2.05-1.13,6.64-3.31,12.88-3.3c6.19,0.01,10.76,2.17,12.8,3.3C199.5,175.01,199.5,176.13,199.5,177.26z"/>
		<path class="st2" d="M192.3,180.6"/>
		<path class="st2" d="M250.12,154.24c-2.84-1.11-9.93-3.56-19.79-3.56c-3.34,0-11.42,0.28-19.79,3.56c-0.13-0.09-1.03-0.72-1-1.74
			c0.04-0.94,0.85-1.51,1-1.6c3.74-1.3,10.73-3.27,19.84-3.26c9.54,0.01,16.58,2.15,19.73,3.26c0.2,0.19,0.72,0.72,0.78,1.5
			C250.99,153.39,250.3,154.08,250.12,154.24z"/>
		<path class="st2" d="M124.49,154.24c2.83-1.11,9.91-3.56,19.74-3.56c3.33,0,11.39,0.28,19.74,3.56c0.13-0.09,1.03-0.72,0.99-1.74
			c-0.04-0.94-0.85-1.51-0.99-1.6c-3.73-1.3-10.71-3.27-19.8-3.26c-9.52,0.01-16.54,2.15-19.69,3.26c-0.2,0.19-0.72,0.72-0.78,1.5
			C123.63,153.39,124.32,154.08,124.49,154.24z"/>
	</g>
	<g>
		<ellipse class="st10" cx="146.4" cy="183.91" rx="15.12" ry="7.86"/>
		<ellipse class="st2" cx="146.01" cy="183.91" rx="5.11" ry="5.53"/>
	</g>
	<g>
		<g>
			<path class="st11" d="M162.07,249.06c1.36,3.8,4.28,9.54,10.71,14.17c3.38,2.43,7.26,5.23,12.6,5.08
				c7.66-0.22,12.66-6.32,14.33-8.36c3.99-4.86,4.58-9.81,4.68-12.16c-2.06-1.11-5.02-2.42-8.79-3.48
				c-3.51-0.98-7.56-1.65-12.03-1.57C174.1,242.91,166.66,246.33,162.07,249.06z"/>
			<path class="st10" d="M182.16,242.15c-5.42,0.14-9.89-0.06-11.4-0.14c-3.59-0.18-6.75-0.46-9.37-0.76
				c0.08,2.58,0.16,5.15,0.24,7.73c0.15,0.11,0.3,0.21,0.46,0.32c0.53-0.27,1.34-0.65,2.39-0.95c2.59-0.74,4.2-0.35,7.13-0.44
				c3.57-0.11,3.17-0.75,6.67-0.87c3.22-0.11,3.39,0.44,7.07,0.5c0.61,0.01,0.79,0,8.1-0.59c3.8-0.31,5.54-0.45,7.85,0.06
				c1.37,0.3,2.43,0.72,3.12,1.02c0.06-0.06,0.13-0.12,0.19-0.18c0.06-0.06,0.13-0.12,0.19-0.18c-0.08-2.58-0.16-5.15-0.24-7.73
				C198.75,240.92,190.95,241.93,182.16,242.15z"/>
			<path class="st1" d="M167.67,241.83c0.03,1.05,0.06,2.11,0.1,3.16c0.03,1.07,0.07,2.15,0.1,3.22"/>
			<line class="st1" x1="174.48" y1="242.15" x2="174.64" y2="248"/>
			<line class="st1" x1="181.41" y1="242.17" x2="181.57" y2="247.61"/>
			<line class="st1" x1="189.41" y1="241.78" x2="189.58" y2="247.54"/>
			<line class="st1" x1="197.35" y1="241.19" x2="197.55" y2="247.48"/>
		</g>
		<path class="st1" d="M207.97,241.36c-0.7-0.72-1.74-1.63-3.19-2.48c-1.38-0.81-2.69-1.31-3.7-1.63"/>
		<path class="st1" d="M159.27,243.88c-0.59-0.05-0.85-0.23-0.95-0.44c-0.43-0.97,2.34-3.3,4.26-4.78"/>
		
			<ellipse transform="matrix(0.9995 -0.0306 0.0306 0.9995 -7.7254 5.7673)" class="st12" cx="184.38" cy="255.03" rx="14.8" ry="6.02"/>
		<path class="st13" d="M200.79,255.79c1.88,4.03-7.38,13.19-15.65,12.51c-1.24-0.1-2.29-0.51-4.39-1.33
			c-1.09-0.42-13.14-5.11-12.16-9.19c0.38-1.57,2.54-2.45,3.06-2.66c2.55-1.03,3.74,0.35,9.68,0.66c0.92,0.05,2.41,0.1,3.81,0.89
			c0.6,0.33,1.31,0.87,1.33,0.85c0.03-0.03-1.13-0.58-1.13-1.24c0-0.84,1.93-1.49,3.54-2.02c2.97-0.97,4.45-1.46,6.32-1.25
			C196.89,253.2,199.95,254,200.79,255.79z"/>
	</g>
	<path class="st1" d="M135.71,240.01c0.78,0.37,2.84,1.46,4.61,3.92c1.43,1.98,1.97,3.86,2.18,4.77"/>
	<path class="st1" d="M233.26,243.72c-0.78,0.37-2.84,1.46-4.61,3.92c-1.43,1.98-1.97,3.86-2.18,4.77"/>
	<g>
		<ellipse class="st10" cx="228.47" cy="183.91" rx="15.12" ry="7.86"/>
		<ellipse class="st2" cx="228.86" cy="183.91" rx="5.11" ry="5.53"/>
	</g>
</g>
</svg>
